<svg
    width="30"
    height="30"
    viewBox="0 0 31 30"
    fill="none"
    xmlns="http://www.w3.org/2000/svg"
>
    <g clipPath="url(#clip0_3_4)">
        <path
            d="M15.5 17.8125C16.2459 17.8125 16.9613 17.5162 17.4887 16.9887C18.0162 16.4613 18.3125 15.7459 18.3125 15C18.3125 14.2541 18.0162 13.5387 17.4887 13.0113C16.9613 12.4838 16.2459 12.1875 15.5 12.1875C14.7541 12.1875 14.0387 12.4838 13.5113 13.0113C12.9838 13.5387 12.6875 14.2541 12.6875 15C12.6875 15.7459 12.9838 16.4613 13.5113 16.9887C14.0387 17.5162 14.7541 17.8125 15.5 17.8125Z"
            fill="#7C57AB"
        />
        <path
            d="M15.5 0C19.4782 0 23.2936 1.58035 26.1066 4.3934C28.9196 7.20644 30.5 11.0218 30.5 15C30.5 18.9782 28.9196 22.7936 26.1066 25.6066C23.2936 28.4196 19.4782 30 15.5 30C11.5218 30 7.70644 28.4196 4.8934 25.6066C2.08035 22.7936 0.5 18.9782 0.5 15C0.5 11.0218 2.08035 7.20644 4.8934 4.3934C7.70644 1.58035 11.5218 0 15.5 0ZM3.3125 15C3.3125 18.2323 4.59654 21.3323 6.88214 23.6179C9.16774 25.9035 12.2677 27.1875 15.5 27.1875C18.7323 27.1875 21.8323 25.9035 24.1179 23.6179C26.4035 21.3323 27.6875 18.2323 27.6875 15C27.6875 11.7677 26.4035 8.66774 24.1179 6.38214C21.8323 4.09654 18.7323 2.8125 15.5 2.8125C12.2677 2.8125 9.16774 4.09654 6.88214 6.38214C4.59654 8.66774 3.3125 11.7677 3.3125 15Z"
            fill="#7C57AB"
        />
    </g>
    <defs>
        <clipPath id="clip0_3_4">
            <rect
                width="30"
                height="30"
                fill="white"
                transform="translate(0.5)"
            />
        </clipPath>
    </defs>
</svg>
